# xmcd
#
# Track frame offsets: 
#        150
#        12980
#        25352
#        40910
#        59867
#        73695
#        89815
#        102992
#        128792
#        140747
#
# Disc length: 2055 seconds
#
# Revision: 0
# Processed by: cddbd v1.5.1PL2 Copyright (c) Steve Scherf et al.
# Submitted via: ExactAudioCopy v0.95b4
#
DISCID=9a08050a
DTITLE=Downchild Blues Band - Straight Up
DYEAR=1978
DGENRE=Blues
TTITLE0=Everyday I Have The Blues
TTITLE1=(I Got Everything I Need) Almost
TTITLE2=York County
TTITLE3=Can't Lose What You Ain't Never Had
TTITLE4=Flip Flop and Fly
TTITLE5=Good Morning Blues
TTITLE6=Bring It On Home
TTITLE7=Shot Gaun Blues
TTITLE8=Dig Myself A Hole
TTITLE9=Everything's Gonna Be Alright
EXTD=
EXTT0=
EXTT1=
EXTT2=
EXTT3=
EXTT4=
EXTT5=
EXTT6=
EXTT7=
EXTT8=
EXTT9=
PLAYORDER=
